<svg width="740" height="740" viewBox="0 0 740 740" fill="none" xmlns="http://www.w3.org/2000/svg">
<path d="M142.68 480.13C148.241 480.9 153.921 481.299 159.693 481.299H271.526C283.78 508.433 297.498 535.964 312.687 563.888C344.366 621.685 383.301 678.756 429.49 735.103C410.869 738.246 391.039 739.818 370 739.818C347.994 739.818 326.471 737.763 305.432 733.652C284.634 729.541 264.562 723.616 245.216 715.877C213.052 697.498 189.352 675.491 174.117 649.857C158.882 624.466 149.33 596.655 145.461 566.427C141.959 538.85 141.031 510.084 142.68 480.13ZM622.038 474.03C630.702 483.773 638.464 493.895 645.323 504.398C660.8 527.855 669.023 554.456 669.99 584.201C646.291 617.332 617.754 645.989 584.382 670.172C551.009 694.355 514.493 712.371 474.833 724.221C425.258 665.94 383.905 607.054 350.774 547.564C338.444 525.169 327.1 503.081 316.741 481.299H580.307C594.957 481.299 609.009 478.733 622.038 474.03ZM39.1426 382.455C46.3756 418.895 69.7174 449.533 101.436 466.64C101.233 469.551 101.034 472.464 100.843 475.378C98.9082 504.881 99.2715 533.779 101.932 562.073C104.834 590.367 111.725 617.452 122.607 643.328C92.3788 615.76 66.9871 583.838 46.4316 547.564C25.8762 511.289 12.0912 472.476 5.07812 431.123C15.4983 414.316 26.8536 398.094 39.1426 382.455ZM466.853 169.946C510.624 169.946 552.702 175.025 593.088 185.182C633.473 195.097 673.013 210.09 711.706 230.162C720.896 251.685 727.909 274.175 732.745 297.633C737.582 321.09 740 345.152 740 369.818C740 398.354 736.735 426.165 730.206 453.25C723.918 480.093 714.728 505.728 702.637 530.152C693.689 501.616 679.905 475.982 661.284 453.25C660.901 452.782 660.515 452.316 660.129 451.85C686.497 429.307 703.213 395.803 703.213 358.393C703.213 290.513 648.186 235.486 580.307 235.485H373.023C356.902 220.112 344.526 203.588 335.901 185.907C378.463 175.267 422.114 169.946 466.853 169.946ZM66.3828 160.152C74.1211 161.362 80.8925 164.989 86.6963 171.034C92.742 177.08 97.8205 184.456 101.932 193.162C106.284 201.626 109.549 210.332 111.726 219.279C114.144 227.985 115.474 235.724 115.716 242.495V243.589C84.7417 255.461 59.7966 279.508 46.7363 309.872C29.8726 327.56 14.4143 346.091 0.362305 365.466C0.120483 364.257 0 363.047 0 361.838V357.485C1.20915 320.969 7.61779 286.025 19.2256 252.652C30.8334 219.28 46.5528 188.447 66.3828 160.152ZM294.912 197.878C300.57 211.04 307.637 223.575 316.11 235.485H236.098C235.345 231.374 234.636 227.302 233.971 223.27C243.886 218.433 253.921 213.96 264.078 209.849C274.235 205.496 284.513 201.505 294.912 197.878ZM196.607 43.711C190.804 62.09 187.297 84.4592 186.088 110.818C185.121 137.178 186.451 166.681 190.078 199.328C184.032 202.714 177.987 206.221 171.941 209.849C166.137 213.234 160.333 216.861 154.529 220.731C152.111 208.639 148.121 196.064 142.559 183.005C137.238 169.946 130.225 158.459 121.52 148.544C113.056 138.387 102.778 131.616 90.6865 128.231C121.399 93.4072 156.706 65.2338 196.607 43.711ZM362.02 0.181702C337.595 14.9333 318.127 34.0377 303.617 57.4952C289.349 80.7109 282.216 106.829 282.216 135.849C282.216 139.718 282.336 143.466 282.578 147.094C282.82 150.721 283.183 154.47 283.667 158.339C274.236 161.483 264.925 164.868 255.735 168.495C246.546 172.123 237.477 175.992 228.529 180.104C225.144 143.829 224.781 112.874 227.441 87.2403C230.102 61.3647 233.85 40.3257 238.687 24.1231C256.824 16.8682 275.686 11.3058 295.274 7.43658C314.863 3.3255 334.813 0.907208 355.127 0.181702H362.02ZM446.901 8.16217C495.267 18.5608 539.522 38.0278 579.666 66.5635C620.052 94.8576 653.303 129.198 679.421 169.584C646.532 156.283 612.072 146.126 576.039 139.113C540.006 131.858 503.611 128.231 466.853 128.231C442.186 128.231 418.003 129.803 394.304 132.946C370.605 135.848 347.389 140.201 324.657 146.005C324.657 144.524 324.564 143.043 324.379 141.562L324.209 140.292C324.024 138.811 323.932 137.33 323.932 135.849C323.448 114.326 328.043 95.342 337.716 78.8975C347.631 62.4531 361.899 48.4272 380.52 36.8194C399.14 24.9698 421.268 15.4171 446.901 8.16217Z" fill="white"/>
</svg>
