<svg width="545" height="112" viewBox="0 0 545 112" fill="none" xmlns="http://www.w3.org/2000/svg">
<path d="M70.0198 109.895V90.7018H0.788903V70.7615C4.62262 66.2307 8.45634 61.6751 12.2901 57.0945C16.1238 52.514 19.9575 47.9334 23.7912 43.3529C27.6249 38.7723 31.4586 34.1918 35.2923 29.6112C39.1261 25.0307 42.9598 20.4502 46.7935 15.8696C50.6272 11.2891 54.4609 6.70853 58.2946 2.12798H94.4411V71.6576H111.469V90.7018H94.4411V109.895H70.0198ZM25.2102 72.3298H70.5426V19.081H70.0198C67.0325 22.5662 64.0452 26.0763 61.0579 29.6112C58.0706 33.1462 55.0833 36.6812 52.096 40.2162C49.1087 43.7014 46.1214 47.2115 43.134 50.7465C40.1467 54.2317 37.1594 57.7418 34.1721 61.2767C31.1848 64.7619 28.1975 68.272 25.2102 71.807V72.3298ZM180.287 111.986C171.674 111.986 163.857 110.767 156.837 108.327C149.867 105.887 143.867 102.327 138.839 97.6473C133.86 92.9173 130.001 87.117 127.263 80.2462C124.574 73.3256 123.23 65.4341 123.23 56.5717V56.4224C123.23 44.8714 125.57 34.8888 130.25 26.4746C134.98 18.0105 141.627 11.4882 150.19 6.90768C158.804 2.32714 168.936 0.0368643 180.586 0.0368643C189.15 0.0368643 196.842 1.25668 203.663 3.69632C210.484 6.13596 216.135 9.59626 220.616 14.0772C225.097 18.5084 228.109 23.7113 229.653 29.6859L229.952 30.7315H204.335L204.037 30.0593C202.842 27.6695 201.149 25.6531 198.958 24.01C196.767 22.367 194.104 21.0974 190.967 20.2012C187.88 19.2552 184.37 18.7822 180.437 18.7822C173.666 18.7822 167.915 20.251 163.185 23.1885C158.455 26.126 154.821 30.1838 152.281 35.3618C149.742 40.5398 148.298 46.5642 147.95 53.4351C147.9 54.381 147.875 55.3519 147.875 56.3477C147.875 57.2937 147.9 58.3641 147.95 59.559L153.551 74.4209C153.501 78.1053 154.597 81.3664 156.837 84.2044C159.078 86.9925 162.214 89.1832 166.247 90.7764C170.28 92.3697 174.96 93.1663 180.287 93.1663C185.615 93.1663 190.27 92.3697 194.253 90.7764C198.286 89.1832 201.398 86.9676 203.589 84.1297C205.829 81.2917 206.949 78.0306 206.949 74.3462V74.1969C206.949 70.4129 205.879 67.1269 203.738 64.3387C201.597 61.5506 198.56 59.4097 194.627 57.916C190.743 56.4224 186.088 55.6755 180.661 55.6755C175.234 55.6755 170.479 56.4473 166.396 57.9907C162.364 59.5341 159.202 61.6999 156.912 64.4881C154.671 67.2763 153.551 70.5623 153.551 74.3462L152.655 75.4665L146.083 75.3918L146.381 59.335H148.398C149.991 55.103 152.555 51.4684 156.09 48.4313C159.675 45.3942 164.081 43.0541 169.309 41.4111C174.587 39.7183 180.561 38.8719 187.233 38.8719C196.344 38.8719 204.236 40.3407 210.907 43.2782C217.579 46.1659 222.757 50.2237 226.441 55.4515C230.126 60.6793 231.968 66.7784 231.968 73.7488V73.8981C231.968 81.466 229.777 88.1128 225.396 93.8384C221.064 99.5143 215.015 103.97 207.248 107.207C199.481 110.393 190.494 111.986 180.287 111.986ZM250.077 74.1222V53.5844H308.927V74.1222H250.077ZM380.21 111.986C370.103 111.986 361.316 110.617 353.847 107.879C346.379 105.091 340.454 101.257 336.073 96.3777C331.741 91.4486 329.152 85.7727 328.306 79.35L328.231 78.3791H352.727L352.876 78.9019C353.773 81.7398 355.391 84.2293 357.731 86.3702C360.121 88.4613 363.183 90.1043 366.917 91.2992C370.651 92.4444 375.032 93.0169 380.061 93.0169C385.538 93.0169 390.243 92.2452 394.176 90.7018C398.159 89.1583 401.221 86.9925 403.362 84.2044C405.553 81.3664 406.648 78.0057 406.648 74.1222V73.9728C406.648 70.1889 405.553 66.9277 403.362 64.1894C401.221 61.4012 398.159 59.2603 394.176 57.7667C390.243 56.273 385.587 55.5262 380.21 55.5262C375.63 55.5262 371.522 56.0241 367.888 57.0198C364.253 57.9658 361.141 59.3599 358.552 61.2021C357.507 61.8991 356.536 62.6708 355.64 63.5172C354.743 64.3636 353.947 65.2598 353.25 66.2058H330.173L336.073 2.12798H424.273V21.3961H356.386L353.324 51.0452H353.847C356.088 48.506 358.876 46.3402 362.212 44.5478C365.548 42.7554 369.332 41.3862 373.564 40.4402C377.796 39.4943 382.376 39.0213 387.305 39.0213C396.168 39.0213 403.86 40.4651 410.382 43.3529C416.954 46.2406 422.058 50.3233 425.692 55.6009C429.327 60.8286 431.144 66.9526 431.144 73.9728V74.1222C431.144 81.7896 429.028 88.4613 424.796 94.1372C420.614 99.8131 414.714 104.219 407.096 107.356C399.478 110.443 390.517 111.986 380.21 111.986ZM445.37 109.895V93.5397L497.05 59.0363C502.527 55.2523 506.734 52.041 509.671 49.4022C512.659 46.7634 514.725 44.3238 515.87 42.0833C517.065 39.793 517.662 37.3783 517.662 34.839V34.6897C517.662 31.4534 516.741 28.6653 514.899 26.3252C513.057 23.9354 510.443 22.0932 507.057 20.7987C503.672 19.5042 499.614 18.8569 494.884 18.8569C489.806 18.8569 485.35 19.6286 481.516 21.1721C477.732 22.6657 474.72 24.8067 472.479 27.5948C470.239 30.3332 468.895 33.5943 468.446 37.3783L468.372 38.2744H444.548V37.6023C445.046 29.8851 447.436 23.2383 451.718 17.662C455.999 12.0359 461.85 7.7043 469.268 4.6672C476.736 1.58031 485.399 0.0368643 495.258 0.0368643C505.066 0.0368643 513.505 1.40605 520.575 4.14442C527.645 6.833 533.097 10.6667 536.931 15.6456C540.764 20.5746 542.681 26.4497 542.681 33.2707V33.4201C542.681 37.9508 541.76 42.1082 539.918 45.8921C538.126 49.676 535.138 53.5097 530.956 57.3932C526.824 61.227 521.197 65.5337 514.078 70.3134L476.438 95.8549L484.354 81.5905V99.5143L475.691 90.9258H544.922V109.895H445.37Z" fill="white"/>
</svg>
